<!--?xml version="1.0" standalone="no"?-->
              <svg id="sw-js-blob-svg" viewBox="0 0 100 100" xmlns="http://www.w3.org/2000/svg" version="1.1">
                    <defs> 
                        <linearGradient id="sw-gradient" x1="0" x2="1" y1="1" y2="0">
                            <stop id="stop1" stop-color="rgba(96.369, 221.218, 108.706, 1)" offset="0%"></stop>
                            <stop id="stop2" stop-color="rgba(184.519, 255, 189.095, 1)" offset="100%"></stop>
                        </linearGradient>
                    </defs>
                <path fill="url(#sw-gradient)" d="M8.9,-20.6C11.2,-14.2,12.2,-10.9,18,-8C23.8,-5.1,34.5,-2.5,36.1,1C37.8,4.5,30.5,8.9,23.6,10.1C16.8,11.3,10.5,9.2,6.6,15C2.8,20.8,1.4,34.4,-1.3,36.7C-4,39,-8,29.9,-10.8,23.5C-13.6,17.1,-15.1,13.3,-17.8,9.9C-20.5,6.4,-24.4,3.2,-24.5,-0.1C-24.6,-3.3,-20.9,-6.6,-17.5,-9C-14.2,-11.3,-11.1,-12.7,-8.3,-18.6C-5.4,-24.6,-2.7,-35.2,0.3,-35.8C3.4,-36.4,6.7,-26.9,8.9,-20.6Z" width="100%" height="100%" transform="translate(50 50)" stroke-width="0" style="transition: all 0.3s ease 0s;"></path>
              </svg>